# xmcd
#
# Track frame offsets: 
#        150
#        3620
#        12533
#        21758
#        33554
#        42690
#        47737
#        56598
#        64648
#        70903
#        83872
#        86087
#        96977
#        106362
#        118009
#        125804
#        134770
#
# Disc length: 1829 seconds
#
# Revision: 0
# Processed by: cddbd v1.5.1PL0 Copyright (c) Steve Scherf et al.
# Submitted via: ExactAudioCopy v0.95a5
#
DISCID=fb072311
DTITLE=Various Artist - KTOH Volume 3 of 3
DYEAR=1945
DGENRE=Country
TTITLE0=Opening Theme - The Pacific Ramblers
TTITLE1=Back Home In Indiana - The Pacific Ramblers
TTITLE2=Montana Queen - Ida
TTITLE3=Voice From The Old Village Choir - Don
TTITLE4=Little Brown Jug - The Pacific Ramblers
TTITLE5=Roger Dodger Reporter - The Pacific Ramblers
TTITLE6=Riding The Trail Back Home - The Silver Sisters
TTITLE7=Home In San Antone - Smitty
TTITLE8=Unknown - The Pacific Ramblers
TTITLE9=Grandfather's Clock - Don
TTITLE10=Funeral Home Commercial - The Pacific Ramblers
TTITLE11=I Told You So - Mary Jane
TTITLE12=PFC On A 3 Day Pass - The Pacific Ramblers
TTITLE13=Worried Mind - William L. "Red" Halleron
TTITLE14=Raggedy Ann - Pappy Adams
TTITLE15=Log Cabin Waltz - Pappy Adams
TTITLE16=Closing Theme - The Pacific Ramblers
EXTD=
EXTT0=
EXTT1=
EXTT2=
EXTT3=
EXTT4=
EXTT5=
EXTT6=
EXTT7=
EXTT8=
EXTT9=
EXTT10=
EXTT11=
EXTT12=
EXTT13=
EXTT14=
EXTT15=
EXTT16=
PLAYORDER=
